<svg width="21" height="17" viewBox="0 0 21 17" fill="none" xmlns="http://www.w3.org/2000/svg">
<path d="M20.8 2.002C20.02 2.34 19.214 2.574 18.356 2.678C19.24 2.158 19.916 1.326 20.228 0.312C19.396 0.806 18.486 1.144 17.524 1.352C16.744 0.52 15.626 0 14.404 0C12.038 0 10.14 1.924 10.14 4.264C10.14 4.602 10.166 4.914 10.244 5.226C6.708 5.07 3.588 3.354 1.482 0.78C-0.0259998 3.484 1.664 5.72 2.782 6.474C2.106 6.474 1.43 6.266 0.858 5.954C0.858 8.06 2.34 9.802 4.264 10.192C3.848 10.322 2.912 10.4 2.34 10.27C2.886 11.96 4.472 13.208 6.318 13.234C4.862 14.378 2.73 15.288 0 15.002C1.898 16.224 4.134 16.926 6.552 16.926C14.404 16.926 18.668 10.426 18.668 4.81C18.668 4.628 18.668 4.446 18.642 4.264C19.526 3.614 20.254 2.86 20.8 2.002Z" fill="white"/>
</svg>
