<svg width="19" height="18" viewBox="0 0 19 18" fill="none" xmlns="http://www.w3.org/2000/svg">
<path d="M13.7819 0H4.78212C2.3074 0 0.282227 2.02517 0.282227 4.49989V13.5001C0.282227 15.9742 2.3074 18 4.78212 18H13.7819C16.2566 18 18.2818 15.9742 18.2818 13.5001V4.49989C18.2818 2.02517 16.2566 0 13.7819 0ZM16.7817 13.5001C16.7817 15.1538 15.4365 16.5 13.7819 16.5H4.78212C3.12819 16.5 1.78226 15.1538 1.78226 13.5001V4.49989C1.78226 2.84574 3.12819 1.50004 4.78212 1.50004H13.7819C15.4365 1.50004 16.7817 2.84574 16.7817 4.49989V13.5001Z" fill="white"/>
</svg>
